<svg viewBox="0 -10 55 68.75">
<path d="M24.64,3.55a1,1,0,0,0-1-1h-.29A1.3,1.3,0,0,0,22,3.84V15.38a1.75,1.75,0,0,1-3.18,1,2,2,0,0,1-.32-1.09V3.85a1.3,1.3,0,0,0-1.3-1.3h0a1.3,1.3,0,0,0-1.3,1.3V15.3a2,2,0,0,1-.32,1.09,1.75,1.75,0,0,1-3.18-1V3.84a1.3,1.3,0,0,0-1.3-1.3h-.29a1,1,0,0,0-1,1V21.87A3.28,3.28,0,0,0,13,25.15h2.11L13.06,48.83a3.94,3.94,0,0,0,4.19,3.64h0a3.94,3.94,0,0,0,4.19-3.64L19.37,25.15h2.11a3.28,3.28,0,0,0,3.17-3.28V3.55Z" />
<path d="M43.75,29.75a3.94,3.94,0,0,0,.93-2.57V6.24A3.57,3.57,0,0,0,41.29,2.5c-7.23.79-11.77,24.4-2.89,27.26h0L36.79,48.33A4.18,4.18,0,0,0,41,52.5h0a4.18,4.18,0,0,0,4.19-4.17Z" />
</svg>