<svg viewBox="-5.0 -20.0 110.0 135.0">
 <path d="m76.469 51v14.711c0.019531 1.5469-0.91406 2.9453-2.3477 3.5195-7.6758 3.1172-15.844 4.8438-24.121 5.0977-8.2773-0.25391-16.445-1.9805-24.121-5.0977-1.4336-0.57422-2.3672-1.9727-2.3477-3.5195v-14.711l23.25 7.4805c2.0898 0.67969 4.3477 0.67969 6.4375 0zm-63.93 6.2891c-0.99219 0.44922-1.6641 1.3945-1.7578 2.4805-0.09375 1.082 0.40625 2.1328 1.3086 2.7422-0.80859 0.56641-1.2812 1.5-1.2695 2.4883v6.4609c0 0.73437 0.59375 1.332 1.3281 1.3398h3.4414c0.73438-0.007812 1.332-0.60547 1.332-1.3398v-6.4609c0.007813-0.98438-0.46875-1.9102-1.2734-2.4805 0.875-0.625 1.3555-1.6641 1.2617-2.7344-0.089844-1.0703-0.73438-2.0156-1.6992-2.4844v-11.742l32.391 10.441c1.5547 0.51953 3.2422 0.51953 4.7969 0l42.152-13.57c0.6875-0.14453 1.1914-0.73047 1.2383-1.4297-0.046874-0.69531-0.55469-1.2734-1.2383-1.4102l-42.152-13.539c-1.5586-0.51172-3.2383-0.51172-4.7969 0l-42.152 13.551c-0.67969 0.13672-1.1875 0.70703-1.2383 1.3984 0.050781 0.69531 0.55469 1.2734 1.2383 1.4219l7.0898 2.2695z" fill-rule="evenodd"/>
</svg>