<svg viewBox="-5.0 -20.0 110.0 135.0">
 <g>
  <path d="m37.5 42.555 11.027-6.6172-11.027-6.6133z"/>
  <path d="m59.961 47.414 21.289-9.4609v-19.203h-75v34.375h50c0-2.4688 1.457-4.7109 3.7109-5.7109zm-7.5938-10.137-15.625 9.375c-0.24609 0.14844-0.52734 0.22266-0.80469 0.22266-0.26562 0-0.53125-0.066406-0.76953-0.20312-0.49219-0.27734-0.79297-0.79688-0.79297-1.3594v-18.75c0-0.5625 0.30078-1.082 0.79297-1.3594 0.48828-0.27734 1.0938-0.27344 1.5742 0.019531l15.625 9.375c0.46875 0.28516 0.75781 0.79297 0.75781 1.3398 0 0.55078-0.28906 1.0586-0.75781 1.3398z"/>
  <path d="m92.328 38.004c-0.88672-0.57422-2.0078-0.66797-2.9727-0.23438l-28.125 12.5c-1.1289 0.5-1.8555 1.6211-1.8555 2.8555v23.141c-1.8359-0.78516-3.9453-1.2656-6.25-1.2656-7.0117 0-12.5 4.1172-12.5 9.375s5.4883 9.375 12.5 9.375 12.5-4.1172 12.5-9.375v-29.219l21.875-9.7227v18.332c-1.8359-0.78516-3.9453-1.2656-6.25-1.2656-7.0117 0-12.5 4.1172-12.5 9.375s5.4883 9.375 12.5 9.375 12.5-4.1172 12.5-9.375v-31.25c0-1.0586-0.53516-2.043-1.4219-2.6211z"/>
  <path d="m18.75 6.25h-9.375c-1.7266 0-3.125 1.3984-3.125 3.125v6.25h12.5z"/>
  <path d="m37.5 6.25h12.5v9.375h-12.5z"/>
  <path d="m21.875 6.25h12.5v9.375h-12.5z"/>
  <path d="m6.25 62.5c0 1.7266 1.3984 3.125 3.125 3.125h9.375v-9.375h-12.5z"/>
  <path d="m37.5 56.25h12.5v9.375h-12.5z"/>
  <path d="m21.875 56.25h12.5v9.375h-12.5z"/>
  <path d="m81.25 9.375c0-1.7266-1.3984-3.125-3.125-3.125h-9.375v9.375h12.5z"/>
  <path d="m53.125 6.25h12.5v9.375h-12.5z"/>
  <path d="m53.125 56.25h3.125v9.375h-3.125z"/>
 </g>
</svg>