<svg viewBox="-5.0 -20.0 110.0 135.0">
 <path d="m93.156 24.5h-18.141c3.0586-1.7656 5.3672-4.5898 6.4844-7.9375 1.1719-4.1562-0.57812-8.0156-4.7812-10.594-3.4844-2.1406-9.5938-2.6094-18.844 7.2344-2.7383 2.9492-5.2461 6.1016-7.5 9.4375-2.4688-5.7812-9.1406-17.953-21.734-17.953-2.7969-0.16797-5.5508 0.72656-7.7188 2.5-1.707 1.5781-2.6484 3.8164-2.5781 6.1406 0.23828 4.4805 2.5273 8.6016 6.2031 11.172h-17.703c-0.41406 0-0.8125 0.16406-1.1055 0.45703s-0.45703 0.69141-0.45703 1.1055v13.094c0.003906 0.86328 0.69922 1.5586 1.5625 1.5625h2.2656v53.031c0.003906 0.86328 0.69922 1.5586 1.5625 1.5625h78.828c0.86328-0.003906 1.5586-0.69922 1.5625-1.5625v-53.031h2.0938c0.86328-0.003906 1.5586-0.69922 1.5625-1.5625v-13.094c0-0.41406-0.16406-0.8125-0.45703-1.1055s-0.69141-0.45703-1.1055-0.45703zm-84.75 13.094v-9.9688h33.938v9.9688zm44.828 54.594h-6.2969v-51.469h6.2969zm1.4531-54.594h-9.2188v-9.9688h9.2188zm36.906 0h-33.781v-9.9688h33.781z"/>
</svg>