<svg viewBox="-5.0 -10.0 110.0 135.0">
 <path d="m83.137 42.113c-1.5859-1.9375-3.957-3.0625-6.4609-3.0625h-53.352c-2.5 0-4.8711 1.125-6.4531 3.0586-1.582 1.9375-2.2109 4.4805-1.7148 6.9336l7.4375 36.375c0.79297 3.875 4.1992 6.6602 8.1562 6.6641h38.543c3.9414-0.023437 7.3242-2.8047 8.1133-6.6641l7.4375-36.395v-0.003907c0.49219-2.4414-0.13672-4.9727-1.707-6.9062zm-19.492 37.398h-27.289v-5.207l27.289-0.003907zm4.625-22.668h-36.539v-5.207h36.539zm-47.312-31.512c-0.92188-2.9648-0.60938-6.1836 0.86719-8.918 1.4805-2.7344 4-4.7539 6.9922-5.6055 2.9883-0.84766 6.1953-0.45312 8.8906 1.0938 2.6992 1.5469 4.6562 4.1172 5.4297 7.1289l0.61328 2.2617h-10.957v5.207h12.5l1.168 4.1055h-12.5v3.2383h-10.574zm27.188-7.7305c0-0.1875-0.11328-0.36328-0.17578-0.54297v0.003906c1.6406-3.6445 4.668-6.4766 8.4141-7.8711 3.7422-1.3906 7.8867-1.2266 11.512 0.45703 3.6211 1.6875 6.4141 4.7539 7.7617 8.5156 1.3438 3.7578 1.1289 7.9023-0.60547 11.504 1.0234 1.2656 1.8359 2.6914 2.3984 4.2188h-0.75-17.449c1.5508-3.3867 3.25-6.8945 4.668-9.25l-4.4688-2.7617c-2.1836 3.8672-4.1562 7.8516-5.918 11.926h-0.76953z"/>
</svg>