<svg viewBox="-5.0 -20.0 110.0 135.0">
<path d="m56.25 47.512h8.332v8.332h-8.332c-1.1523 0-2.082 0.93359-2.082 2.082v8.332l-8.3359 0.003907v-8.3359c0-0.55078-0.21875-1.082-0.60938-1.4727s-0.92188-0.60938-1.4727-0.60938h-8.332v-8.332h8.332c0.55078 0 1.082-0.22266 1.4727-0.61328 0.39062-0.39063 0.60938-0.91797 0.60938-1.4727v-8.332h8.332v8.332h0.003907c0 0.55469 0.21875 1.082 0.60938 1.4727 0.39062 0.39062 0.92188 0.61328 1.4727 0.61328zm-5.7695 45.062c-0.31641 0.066406-0.64453 0.066406-0.96094 0-23.812-5.6562-39.844-34.301-36.457-65.207v-0.003907c0.11328-1.0156 0.94531-1.8008 1.9688-1.8516 14.512-0.69922 25.395-6.3438 33.332-17.281 0.39453-0.54297 1.0195-0.86328 1.6875-0.86328s1.2969 0.32031 1.6875 0.86328c7.9062 10.938 18.801 16.582 33.332 17.281h0.003907c1.0195 0.050781 1.8555 0.83594 1.9688 1.8516 3.2812 30.906-12.75 59.555-36.562 65.211zm18.27-47.148c0-0.55078-0.21875-1.082-0.60938-1.4727s-0.92188-0.60938-1.4727-0.60938h-8.3359v-8.332c0-0.55469-0.21875-1.082-0.60938-1.4727-0.39062-0.39062-0.92188-0.61328-1.4727-0.61328h-12.5c-1.1523 0-2.082 0.93359-2.082 2.0859v8.332h-8.3359c-1.1484 0-2.082 0.93359-2.082 2.082v12.5c0 0.55469 0.21875 1.082 0.60938 1.4727 0.39062 0.39062 0.92188 0.61328 1.4727 0.61328h8.332v8.332h0.003907c0 0.55078 0.21875 1.082 0.60938 1.4727s0.92188 0.60938 1.4727 0.60938h12.5c0.55078 0 1.082-0.21875 1.4727-0.60938s0.60938-0.92188 0.60938-1.4727v-8.332h8.3359c0.55078 0 1.082-0.22266 1.4727-0.61328 0.39062-0.39063 0.60938-0.91797 0.60938-1.4727z" />
</svg>