<svg viewBox="-5.0 -20.0 110.0 135.0">
<path d="m17.902 27.355c2.4766-2.1328 4.8438-3.5195 9.0469-3.5195h3.7773c0.98047 0 1.7695-0.78906 1.7695-1.7695v-3.7578c-0.058594-5.6836 2.6523-8.1484 5.8906-11.695-12.613 1.793-21.32 10.5-23.113 23.113 0.86328-0.79687 1.8047-1.6875 2.625-2.3672z" />
<path d="m80.73 6.25h-36.238c-3.0586 3.8867-8.125 7.0859-7.7266 12.059v3.7578c0 3.3281-2.7109 6.0391-6.0391 6.0391h-3.7773c-4.9297-0.42969-8.1953 4.7305-12.035 7.7266v53.523c0 2.4336 1.9844 4.3945 4.3945 4.3945h61.422c2.3906 0 4.3555-1.9414 4.3555-4.3555v-78.789c0-2.4102-1.9648-4.3555-4.3555-4.3555zm-18.547 23.711-11.141 11.117c-0.83594 0.84766-2.1797 0.86328-3.0078 0l-3.6055-3.5859c-1.9648-1.9922 1.0508-4.9688 3.0312-3.0078l2.0703 2.0703 9.625-9.625c1.9883-1.9609 5 1.0312 3.0312 3.0312zm-24.992 0.085937c-0.039062-1.9414 1.6758-3.5273 3.6055-3.4805 3.3711 0.17188 5.4219-1.3672 6.3398-2.2852 1.3672-1.2812 3.457-1.2812 4.8008 0 0.33984 0.32031 0.91797 0.8125 1.75 1.2812 1.0234 0.57812 1.3867 1.8789 0.8125 2.9023-1.2383 2.1367-3.6406 0.56641-4.9531-0.59766-1.4922 1.2578-4.1836 2.9023-8.0898 2.9648v3.3516c0 3.9062 1.6016 7.4688 4.375 9.7539 1.1094 0.89453 2.3477 1.6211 3.7148 2.1562 3.4375-1.3359 6.1914-3.9414 7.3398-7.5117 0.90625-2.6758 4.8867-1.3438 4.0547 1.3242-1.5898 4.9219-5.3984 8.5625-10.203 10.285-0.72656 0.23828-1.5469 0.26172-2.2852 0.042969-9.082-3.332-11.906-10.953-11.27-20.188zm-8.8359 24.52h43.281c1.1719 0 2.1328 0.96094 2.1328 2.1328s-0.96094 2.1328-2.1328 2.1328l-43.277 0.003907c-2.7891-0.050782-2.8164-4.2148 0-4.2695zm0 7.5352h28.598c2.793 0.035157 2.8125 4.2148 0 4.2695h-28.598c-2.7969-0.050782-2.8086-4.2305 0-4.2695zm0 9.2422h43.281c1.1719 0 2.1328 0.96094 2.1328 2.1328 0 1.1719-0.96094 2.1328-2.1328 2.1328h-43.277c-2.7891-0.050781-2.8164-4.2148 0-4.2695zm0 7.5352h28.598c2.793 0.035156 2.8125 4.2148 0 4.2695h-28.598c-2.7969-0.050782-2.8086-4.2305 0-4.2695z" />
</svg>