<svg viewBox="-5.0 -15.0 110.0 135.0">
 <path d="m26.5 8c-5.5234 0-10 4.4766-10 10v11.5h-2c-3.5898 0-6.5 2.9102-6.5 6.5v10c0 1.3789 1.1211 2.5 2.5 2.5s2.5-1.1211 2.5-2.5v-10c0-0.82812 0.67188-1.5 1.5-1.5h2v41.977c0 2.207 1.7891 4 4 4h2.082c-0.011719 0.14844-0.015625 0.30469-0.015625 0.45703v4.2266c0 3.3125 2.6836 6 6 6h2.1953c3.3125 0 6-2.6875 6-6v-4.2266c0-0.15234-0.007813-0.30859-0.019531-0.45703h26.84c-0.011719 0.14844-0.015625 0.30469-0.015625 0.45703v4.2266c0 3.3125 2.6836 6 6 6h2.1953c3.3125 0 6-2.6875 6-6v-4.2266c0-0.15234-0.007813-0.30859-0.019531-0.45703h2.0312c2.2109 0 4-1.793 4-4v-41.977h1.7266c0.82812 0 1.5 0.67188 1.5 1.5v10c0 1.3789 1.1211 2.5 2.5 2.5s2.5-1.1211 2.5-2.5v-10c0-3.5898-2.9102-6.5-6.5-6.5h-1.7266v-11.5c0-5.5234-4.4766-10-10-10zm-1 20h50c2.2109 0 4 1.7891 4 4v18c0 2.2109-1.7891 4-4 4h-50c-2.2109 0-4-1.7891-4-4v-18c0-2.2109 1.7891-4 4-4zm-1 38.5c0-3.0391 2.4609-5.5 5.5-5.5s5.5 2.4609 5.5 5.5-2.4609 5.5-5.5 5.5-5.5-2.4609-5.5-5.5zm47.426-5.5c-3.0391 0-5.5 2.4609-5.5 5.5s2.4609 5.5 5.5 5.5c3.0391 0 5.5-2.4609 5.5-5.5s-2.4609-5.5-5.5-5.5zm-29.434 6c0-0.82812 0.67187-1.5 1.5-1.5h15.977c0.82812 0 1.5 0.67188 1.5 1.5s-0.67188 1.5-1.5 1.5h-15.977c-0.82813 0-1.5-0.67188-1.5-1.5zm1.5-51.5c-0.82813 0-1.5 0.67188-1.5 1.5s0.67187 1.5 1.5 1.5h15.977c0.82812 0 1.5-0.67188 1.5-1.5s-0.67188-1.5-1.5-1.5z" fill-rule="evenodd"/>
</svg>