<svg viewBox="4 0 60 60">
                <g>
                  <g>
                    <g>
                      <g>
                        <polygon points="20.855011,19.1349792 17.5749817,22.4250183 12.9750061,19.6650085 10.2149963,15.0649719       13.4949646,11.7850037 18.105011,14.5450134     " />
                      </g>
                      <g>
                        <path d="M32.3749695,39.7549744l-1.7399902,2.1300049c-2.3399658,2.8300171-4.4699707,5.460022-6.1900024,7.6400146      c-0.5999756,0.8200073-2.1799927,1.8200073-4.0599976,2.1099854c-1.039978,0.1700439-2.5499878,0.1700439-3.7600098-0.7199707      c-0.8200073-0.6600342-1.4299927-1.2700195-1.8999634-1.9000244c-0.9299927-1.2600098-0.9299927-2.7600098-0.7600098-3.8099976      c0.289978-1.8800049,1.2799683-3.4699707,2.1300049-4.0899658c2.5299683-1.9700317,5.5-4.4000244,8.6499634-6.9800415      l1.1000366-0.9099731L32.3749695,39.7549744z" />
                        <path d="M53.7850037,19.0049744l-3.1100464,8.0400391c-2.1799927,2.0499878-5.4299927,2.6300049-8.1699829,1.4199829      c-0.4099731-0.1799927-0.8999634-0.0599976-1.1900024,0.2999878l-0.2399902,0.3099976      c-0.4000244,0.5100098-0.8099976,1.0300293-1.2600098,1.5900269l-2.2099609,2.7000122l-5.3900146-5.3900146      c1.5-1.2200317,2.9299927-2.3699951,4.2099609-3.3900146c0.4200439-0.3300171,0.5-0.9400024,0.1800537-1.3800049      c-2.1500244-2.8999634-1.8800049-7.0100098,0.6099854-9.6499634l8.0100098-3.1000366l1.5499878,1.539978l-6.0599976,6.0500488      c-0.1799927,0.1900024-0.2900391,0.4400024-0.2900391,0.7099609c0,0.2600098,0.1100464,0.5200195,0.2900391,0.710022      l5.4199829,5.4199829c0.3900146,0.3900146,1.0300293,0.3900146,1.4199829,0l6.0500488-6.0599976L53.7850037,19.0049744z" />
                        <polygon points="20.855011,19.1349792 20.8649597,19.144989 17.5749817,22.4250183     " />
                      </g>
                      <g>
                        <polygon points="44.1650085,36.2850037 44.0549622,36.4049988 35.3749695,45.0849915 33.3049622,43.0049744       39.5649719,36.7449646 42.0950012,34.2149963     " />
                        <rect
                          x="26.1948967"
                          y="19.025032"
                          transform="matrix(0.7071068 -0.7071068 0.7071068 0.7071068 -12.8303289 28.7548275)"
                          width="4.2001729"
                          height="21.6799183"
                        />
                      </g>
                      <g>
                        <path d="M53.5350037,49.1249695c0,1.1800537-0.460022,2.2900391-1.2999878,3.1300049      c-0.8300171,0.8300171-1.9500122,1.2900391-3.1300049,1.2900391c-1.1800537,0-2.2900391-0.460022-3.1300049-1.3000488      l-7.4700317-7.4699707l6.25-6.25l7.4800415,7.4699707C53.0749817,46.8249817,53.5350037,47.934967,53.5350037,49.1249695z" />
                      </g>
                    </g>
                  </g>
                </g>
              </svg>