<svg width="33" height="32" viewBox="0 0 33 32" fill="none" xmlns="http://www.w3.org/2000/svg">
<path d="M23.0115 14H9.01154C7.68545 14 6.41368 14.5268 5.476 15.4645C4.53832 16.4021 4.01154 17.6739 4.01154 19V25C4.01154 26.3261 4.53832 27.5979 5.476 28.5355C6.41368 29.4732 7.68545 30 9.01154 30H23.0115C24.3376 30 25.6094 29.4732 26.5471 28.5355C27.4848 27.5979 28.0115 26.3261 28.0115 25V19C28.0115 17.6739 27.4848 16.4021 26.5471 15.4645C25.6094 14.5268 24.3376 14 23.0115 14ZM16.0115 26C15.2204 26 14.4471 25.7654 13.7893 25.3259C13.1315 24.8864 12.6188 24.2616 12.316 23.5307C12.0133 22.7998 11.9341 21.9956 12.0884 21.2196C12.2427 20.4437 12.6237 19.731 13.1831 19.1716C13.7425 18.6122 14.4553 18.2312 15.2312 18.0769C16.0071 17.9225 16.8114 18.0017 17.5423 18.3045C18.2732 18.6072 18.8979 19.1199 19.3374 19.7777C19.7769 20.4355 20.0115 21.2089 20.0115 22C20.0115 23.0609 19.5901 24.0783 18.84 24.8284C18.0898 25.5786 17.0724 26 16.0115 26Z" fill="#00A86B"/>
<path d="M16.0115 24C17.1161 24 18.0115 23.1046 18.0115 22C18.0115 20.8954 17.1161 20 16.0115 20C14.907 20 14.0115 20.8954 14.0115 22C14.0115 23.1046 14.907 24 16.0115 24Z" fill="#00A86B"/>
<path d="M16.0116 2C15.7463 2 15.492 2.10536 15.3045 2.29289C15.1169 2.48043 15.0116 2.73478 15.0116 3V8.59L12.4716 6.05C12.2803 5.88617 12.0342 5.80057 11.7825 5.81029C11.5308 5.82001 11.2921 5.92434 11.114 6.10244C10.9359 6.28053 10.8316 6.51927 10.8219 6.77095C10.8121 7.02262 10.8977 7.2687 11.0616 7.46L15.3016 11.71C15.3937 11.8 15.5024 11.8713 15.6216 11.92C15.7449 11.9723 15.8776 11.9992 16.0116 11.9992C16.1456 11.9992 16.2782 11.9723 16.4016 11.92C16.5208 11.8713 16.6294 11.8 16.7216 11.71L21.0116 7.46C21.1754 7.2687 21.261 7.02262 21.2513 6.77095C21.2416 6.51927 21.1372 6.28053 20.9591 6.10244C20.781 5.92434 20.5423 5.82001 20.2906 5.81029C20.0389 5.80057 19.7929 5.88617 19.6016 6.05L17.0116 8.59V3C17.0116 2.73478 16.9062 2.48043 16.7187 2.29289C16.5311 2.10536 16.2768 2 16.0116 2Z" fill="#00A86B"/>
</svg>
