                  <svg viewBox="0 -10 512 640">
                    <path d="M404.4,190l10.6-12c-2.6-2.3-5.3-4.4-8.2-6.4l-10.2-7.1l-9.1,13.2l10.2,7.1C400,186.4,402.3,188.1,404.4,190z" />
                    <path d="M435,328.6l16-1.1l-6.4-89.8c-1.1-15-6-29.5-14.2-42.1l-13.4,8.8c6.8,10.3,10.8,22.1,11.7,34.4L435,328.6z" />
                    <rect
                      x="15.6"
                      y="348"
                      transform="matrix(7.129049e-02 -0.9975 0.9975 7.129049e-02 -292.2072 398.1627)"
                      width="104.3"
                      height="16"
                    />
                    <rect
                      x="61.4"
                      y="268"
                      transform="matrix(7.128969e-02 -0.9975 0.9975 7.128969e-02 -207.1025 329.5665)"
                      width="24.1"
                      height="16"
                    />
                    <rect x="264" y="376" width="24" height="64" />
                    <rect x="224" y="376" width="24" height="64" />
                    <path d="M259.1,304.6l20.9,8.7V296c0-13.3-10.7-24-24-24c-13.3,0-24,10.7-24,24v17.3l20.9-8.7C254.9,303.8,257.1,303.8,259.1,304.6z  " />
                    <rect x="184" y="376" width="24" height="64" />
                    <polygon points="168,357.3 168,360 344,360 344,357.3 256,320.7 " />
                    <rect x="304" y="376" width="24" height="64" />
                    <path d="M438.4,452.8L418.6,438c-1.9-1.4-3-3.5-3.2-5.8l-12.7-178.5c-1.8-26.6-15.7-50.9-37.7-66.1l-18.3-12.6  c7.3-9.1,6.9-22.2-0.9-30.9c8.2-9.1,8.2-22.9,0-32c8.8-9.9,8-25-1.8-33.9c-4.4-4-10.1-6.1-16-6.1h-7.6l15.2-45.5  c1.4-4.2-0.9-8.7-5.1-10.1c-0.8-0.3-1.7-0.4-2.5-0.4H184c-4.4,0-8,3.6-8,8c0,0.9,0.1,1.7,0.4,2.5L191.6,72h-16.9  c-6.4,0-12.5,2.5-17,7L139.7,97c-4.5,4.5-10.6,7-17,7H16v104h106.7c1,0,2.1,0.1,3.1,0.2c-9.7,13.3-15.4,29.1-16.5,45.5L96.5,432.2  c-0.2,2.3-1.3,4.4-3.2,5.8l-19.8,14.8c-10.6,8-12.8,23-4.8,33.6c4.5,6,11.6,9.6,19.2,9.6h336c13.3,0,24-10.7,24-24  C448,464.4,444.4,457.3,438.4,452.8z M112,192H72v-72h40V192z M328,88c4.4,0,8,3.6,8,8s-3.6,8-8,8h-35.7c-1.9-5.9-5-11.3-9.1-16H328  z M336,128c0,4.4-3.6,8-8,8h-36.6c2-5.1,3.1-10.5,3.3-16H328C332.4,120,336,123.6,336,128z M328,152c4.4,0,8,3.6,8,8s-3.6,8-8,8h-48  c-2.2,0-4.4,0.3-6.5,0.9l9.4-16.9H328z M336,192c0,4.4-3.6,8-8,8h-48c-4.4,0-8-3.6-8-8s3.6-8,8-8h48C332.4,184,336,187.6,336,192z   M137.8,194.9c-3.1-1.3-6.4-2.1-9.8-2.6v-72.7c8.7-1.1,16.8-5.1,23-11.4L169,90.3c1.5-1.5,3.5-2.3,5.7-2.3H248c8.2,0,16,3.2,21.7,9  c9.7,9.7,11.8,24.6,5.1,36.7l-23.2,41.8c-9.9-2.5-15.9-12.5-13.4-22.3c0.2-0.9,0.5-1.9,0.9-2.8c4.7-11.1-0.4-23.9-11.4-28.6  c-2.7-1.2-5.6-1.8-8.6-1.8H184v16h35.1c0.7,0,1.3,0.1,2,0.3L147,187.6C143.7,189.8,140.7,192.3,137.8,194.9z M360,368  c0,4.4-3.6,8-8,8h-8v64h16v16H152v-16h16v-64h-8c-4.4,0-8-3.6-8-8v-16c0-3.2,1.9-6.1,4.9-7.4L216,320v-24c0-19,13.4-35.4,32-39.2  V232h16v24.8c18.6,3.8,32,20.2,32,39.2v24l59.1,24.6c3,1.2,4.9,4.2,4.9,7.4V368z" />
                  </svg>