                  <svg viewBox="0 -10 100 125">
                    <path d="M75.796,64.468v6.903c-2.529-.579-3.658-1.28-3.658-3.369,0-1.705,1.56-3.139,3.658-3.534Zm2.333,9.766v6.901c2.099-.394,3.658-1.826,3.658-3.528,0-2.092-1.13-2.794-3.658-3.373Zm-22.517,6.3c0,2.067-1.267,3.933-3.119,4.744v2.936c0,1.238-1.007,2.245-2.245,2.245h-3.95c-1.238,0-2.245-1.007-2.245-2.245v-2.509h-2.035v2.509c0,1.238-1.007,2.245-2.245,2.245h-3.95c-1.235,0-2.239-1.007-2.239-2.245v-2.509h-6.253c-2.051,4.765-6.782,7.911-12.022,7.911-7.214,0-13.082-5.869-13.082-13.082s5.869-13.088,13.082-13.088c5.241,0,9.971,3.147,12.022,7.911h23.11c2.851,0,5.171,2.322,5.171,5.177Zm-44.638,0c0,2.39,1.945,4.335,4.335,4.335s4.335-1.945,4.335-4.335-1.945-4.341-4.335-4.341-4.335,1.947-4.335,4.341Zm86.801-7.73c0,11.476-9.336,20.812-20.812,20.812s-20.812-9.336-20.812-20.812c0-.068,.002-.136,.003-.203h-23.686c-3.316,0-6.013-2.7-6.013-6.019v-29.818l-4.467,2.579c-1.092,.631-2.308,.953-3.542,.953-.622,0-1.248-.082-1.867-.247-1.846-.494-3.385-1.672-4.333-3.318-.948-1.642-1.198-3.563-.703-5.408,.495-1.845,1.672-3.383,3.315-4.332L48.872,7.35c2.235-1.288,5.236-1.288,7.47,0l34.016,19.641c1.643,.949,2.82,2.487,3.315,4.332,.495,1.845,.245,3.766-.704,5.409-1.968,3.403-6.34,4.574-9.745,2.611l-4.462-2.576v15.299c10.636,.915,19.013,9.866,19.013,20.739Zm-13.654,4.803c0-4.143-3.216-5.189-5.991-5.764v-7.371c1.733,.332,3.144,1.384,3.547,2.744,.183,.618,.832,.97,1.449,.787,.618-.183,.97-.832,.787-1.449-.694-2.345-2.991-4.068-5.783-4.447v-2.978c0-.644-.522-1.166-1.166-1.166s-1.166,.522-1.166,1.166v2.98c-3.394,.466-5.991,2.931-5.991,5.894,0,4.14,3.216,5.186,5.991,5.76v7.369c-1.695-.328-3.094-1.35-3.523-2.669-.199-.613-.858-.947-1.47-.748-.613,.199-.947,.857-.748,1.47,.738,2.269,3.015,3.937,5.741,4.312v2.979c0,.644,.522,1.166,1.166,1.166s1.166-.522,1.166-1.166v-2.98c3.394-.466,5.991-2.928,5.991-5.889ZM46.727,43.828h11.762c1.847,0,3.35,1.503,3.35,3.35v11.34c3.683-3.899,8.851-6.38,14.59-6.525v-16.574l-23.821-13.752-23.821,13.75v31.165c0,2.033,1.651,3.686,3.68,3.686h10.909v-23.089c0-1.847,1.503-3.35,3.35-3.35Zm3.433-4.11h5.65c1.456,0,2.641-1.185,2.641-2.641v-5.65c0-1.453-1.185-2.635-2.641-2.635h-5.65c-1.453,0-2.635,1.182-2.635,2.635v5.65c0,1.456,1.182,2.641,2.635,2.641Z" />
                  </svg>