<svg viewBox="-5.0 -20.0 110.0 135.0">
 <path d="m56.582 13.211 0.019531 0.066406c0.75391 2.8984 0.52344 6.0391-0.81641 8.7344-2.7656 5.5586-9.2656 7.293-14.43 3.8359-5.082-3.4023-6.9844-10.57-4.2617-16.047 2.7656-5.5625 9.2656-7.293 14.43-3.8359 2.5078 1.6797 4.2578 4.2852 5.043 7.1836zm3.8008 15.727c-1.0195-2.0898-3.7266-3.0117-5.8984-1.8984l-19.918 10.219c-1.0273 0.52734-2.0234 0.68359-3.1641 0.48828l-23.145-3.9766c-1.1484-0.19531-2.3203 0.074219-3.2695 0.74219-3.1836 2.25-2.0273 7.2305 1.7852 7.8867l25.809 4.4297c1.1289 0.25 2.0781 0.22266 3.1445-0.32422l22.758-11.676c2.1406-1.0898 2.9922-3.75 1.8984-5.8906zm1.6875 32.746 1.5273 1.2578-0.35547 0.41406c0.14453 0.42188 0.20312 0.89062 0.16016 1.3398 0.070312 1.1211-0.29297 2.2266-1.0195 3.0898-0.74609 0.89062-1.8164 1.4453-2.9727 1.543l-23.91 2.0703c-1.8984 0.16406-3.4492 1.0547-4.5586 2.6055l-14.043 19.648c-1.3477 1.8828-3.9609 2.3867-5.9102 1.1484-0.36328-0.23047-0.24219-0.12109-0.50391-0.46094-1.3047-1.6992-2.082-3.8711-0.71094-5.7852l15.891-22.227c1.2383-1.6367 3.1602-3.1367 5.2773-3.3203l27.715-2.3984c1.2148-0.10547 2.4805 0.29688 3.4141 1.0742zm-15.141-0.058594c-2.2461-6.918-1.6172-14.184 0.41016-21.074l11.145-5.7148c1.6367-0.83984 2.5664-2.625 2.3477-4.4375l1.0117 2.2422c1.6445 3.6367 2.4414 7.6289 2.7422 11.594 0.4375 5.7695-0.12891 11.734-1.0781 17.426l-0.17578 1.0586c-1.2461-1.0273-2.0703-1.9023-3.7617-2.0977-0.30078-0.035156-0.60547-0.039063-0.91016-0.011719zm-11.262 21.203c-2.418 0-3.6992 2.9531-1.9492 4.707 0.5 0.5 1.1914 0.8125 1.9492 0.8125h24.203c2.418 0 3.6992-2.9531 1.9492-4.707-0.5-0.5-1.1914-0.8125-1.9492-0.8125zm0-1.9531h24.203c2.418 0 3.6992-2.9531 1.9492-4.707-0.5-0.5-1.1914-0.8125-1.9492-0.8125h-24.203c-2.418 0-3.6992 2.9531-1.9492 4.707 0.5 0.5 1.1914 0.8125 1.9492 0.8125zm0 9.4219c-2.418 0-3.6992 2.9531-1.9492 4.707 0.5 0.5 1.1914 0.8125 1.9492 0.8125h24.203c2.418 0 3.6992-2.9531 1.9492-4.707-0.5-0.5-1.1914-0.8125-1.9492-0.8125zm34.227-9.4648h24.203c2.418 0 3.6992-2.9531 1.9492-4.707-0.5-0.5-1.1914-0.8125-1.9492-0.8125l-24.203 0.003906c-2.418 0-3.6992 2.9531-1.9492 4.707 0.5 0.5 1.1914 0.80859 1.9492 0.80859zm0 9.4258c-2.418 0-3.6992 2.9531-1.9492 4.707 0.5 0.5 1.1914 0.8125 1.9492 0.8125h24.203c2.418 0 3.6992-2.9531 1.9492-4.707-0.5-0.5-1.1914-0.8125-1.9492-0.8125zm0-1.9531h24.203c2.418 0 3.6992-2.9531 1.9492-4.707-0.5-0.5-1.1914-0.8125-1.9492-0.8125h-24.203c-2.418 0-3.6992 2.9531-1.9492 4.707 0.5 0.5 1.1914 0.8125 1.9492 0.8125zm0-27.93c-2.418 0-3.6992 2.9531-1.9492 4.707 0.5 0.5 1.1914 0.8125 1.9492 0.8125h24.203c2.418 0 3.6992-2.9531 1.9492-4.707-0.5-0.5-1.1914-0.8125-1.9492-0.8125zm0-1.9531h24.203c2.418 0 3.6992-2.9531 1.9492-4.707-0.5-0.5-1.1914-0.8125-1.9492-0.8125h-24.203c-2.418 0-3.6992 2.9531-1.9492 4.707 0.5 0.5 1.1914 0.8125 1.9492 0.8125zm0 9.4219c-2.418 0-3.6992 2.9531-1.9492 4.707 0.5 0.5 1.1914 0.8125 1.9492 0.8125h24.203c2.418 0 3.6992-2.9531 1.9492-4.707-0.5-0.5-1.1914-0.8125-1.9492-0.8125zm22.172-42.352c-5.5625-5.5625-14.582-5.5625-20.145 0s-5.5625 14.582 0 20.145 14.582 5.5625 20.145 0c5.5625-5.5664 5.5625-14.582 0-20.145zm-2.3594 2.3594c4.2578 4.2578 4.2578 11.164 0 15.418-4.2578 4.2578-11.16 4.2578-15.418 0-4.2578-4.2578-4.2578-11.16 0-15.418 4.2539-4.2578 11.16-4.2578 15.418 0zm-7.7109-5.1445c7.1016 0 12.855 5.7578 12.855 12.855 0 7.1016-5.7578 12.855-12.855 12.855-7.1016 0-12.855-5.7578-12.855-12.855 0-7.1016 5.7539-12.855 12.855-12.855zm0 13.828c-2.5 0.007813-4.9844-1.5508-4.9922-4.0195h-0.003906c0-2.168 1.9922-3.6562 4.1133-3.9609l0.011719-1.0078c0.015625-1.2812 1.9609-1.2578 1.9453 0.023437l-0.011718 1.0156c2.0391 0.35547 3.9102 1.832 3.9297 3.9219 0.003907 0.53906-0.42969 0.97656-0.96484 0.98047-0.53906 0.003907-0.97656-0.42578-0.98047-0.96484-0.015625-1.7891-3.3477-2.8633-5.3008-1.3828-0.48828 0.36719-0.78906 0.85547-0.78906 1.375l-0.003906 0.003906c0.007812 1.2891 1.6328 2.0742 3.0156 2.0742h0.066406v-0.003906c2.4766 0 4.9531 1.5664 4.9609 4.0234h0.003906c0 2.168-1.9922 3.6562-4.1133 3.9609l-0.011718 1.0078c-0.015625 1.2812-1.9609 1.2578-1.9453-0.023437l0.011719-1.0156c-2.0391-0.35547-3.9102-1.832-3.9336-3.9219-0.003906-0.53906 0.42969-0.97656 0.96484-0.98047s0.97656 0.42969 0.98047 0.96484c0.019531 1.7891 3.3477 2.8633 5.3008 1.3828 0.48828-0.36719 0.78906-0.85547 0.78906-1.375h0.003907c-0.007813-1.2891-1.625-2.0703-3.0156-2.0703v-0.003907zm-75.164 5.8789v52.426c0 1.2852-1.9531 1.2852-1.9531 0v-53.258c0.58203 0.44141 1.2188 0.70312 1.9531 0.83203z" fill-rule="evenodd"/>
</svg>