                  <svg viewBox="0 -10 112 153.75" version="1.1" x="0px" y="0px">
                    <g
                      stroke="none"
                      stroke-width="1"
                      fill="none"
                      fill-rule="evenodd"
                    >
                      <g
                        transform="translate(-3065.000000, -843.000000)"
                        fill="#000000"
                        fill-rule="nonzero"
                      >
                        <path d="M3130.23209,947.739358 C3125.01117,945.383378 3120.51316,941.708714 3117.16263,937.139919 L3115.07812,937.139919 L3104.16554,937.139919 L3100.95099,941.418802 C3099.21682,943.748856 3097.77872,945.82476 3097.77872,945.951835 C3097.82102,946.121321 3100.57031,948.3243 3103.91176,950.866199 C3104.11992,951.022575 3104.31923,951.190377 3104.50876,951.368879 C3107.33349,954.029122 3107.46685,958.475548 3104.80661,961.300303 L3103.3619,962.834302 C3099.63655,966.790042 3093.44447,967.076137 3089.37021,963.48082 L3083.5247,958.322435 C3076.09647,951.767412 3074.93726,940.610907 3080.85914,932.668727 C3086.38734,925.254564 3089.23562,921.406961 3089.40395,921.125944 C3090.0807,920.109185 3090.1653,918.795864 3090.1653,910.492302 L3090.1653,900.960188 L3067.88123,876.828769 C3063.88841,872.504937 3064.07329,865.785531 3068.29784,861.687793 C3068.33362,861.652352 3068.36966,861.617144 3068.40596,861.582247 C3072.45171,857.690549 3078.88626,857.815449 3082.77795,861.861191 C3084.96167,864.131348 3087.14213,866.417748 3089.31936,868.720393 C3091.77258,871.262292 3095.36781,875.032768 3097.35576,877.066313 L3100.90869,880.794431 L3107.75015,880.794431 L3113.48494,854.88709 L3116.62901,854.788953 L3122.36381,880.794431 L3129.20526,880.794431 L3132.25063,877.701768 C3133.90021,876.049554 3139.44109,870.245532 3144.51671,864.907532 C3145.31824,864.064895 3146.11043,863.235524 3146.89328,862.419365 C3146.90749,862.404546 3146.92175,862.389778 3146.93605,862.375037 C3150.96646,858.222453 3157.60008,858.123409 3161.75266,862.153814 C3165.92729,866.205619 3166.10462,872.848779 3162.15208,877.117532 L3153.76273,886.178033 C3167.11428,890.405096 3176.7913,902.894833 3176.7913,917.64476 C3176.7913,932.946672 3166.37644,945.816065 3152.24864,949.551025 C3151.2558,952.814809 3149.37724,955.846341 3146.6527,958.258884 L3140.7834,963.456053 C3136.73453,967.041266 3130.57104,966.766078 3126.85779,962.834302 L3125.2521,961.134081 C3125.08813,960.96045 3124.93332,960.778425 3124.7883,960.58868 C3122.4823,957.5719 3123.0585,953.256928 3126.0753,950.950916 C3127.66327,949.752857 3129.13058,948.615225 3130.23209,947.739358 Z M3116.08749,879.290489 C3106.26004,879.290489 3098.29333,871.310925 3098.29333,861.467612 C3098.29333,851.624325 3106.26004,843.64476 3116.08749,843.64476 C3125.91494,843.64476 3133.88165,851.624325 3133.88165,861.467612 C3133.88165,871.310925 3125.91494,879.290489 3116.08749,879.290489 Z M3143.7913,947.64476 C3160.35984,947.64476 3173.7913,934.213302 3173.7913,917.64476 C3173.7913,901.076217 3160.35984,887.64476 3143.7913,887.64476 C3127.22276,887.64476 3113.7913,901.076217 3113.7913,917.64476 C3113.7913,934.213302 3127.22276,947.64476 3143.7913,947.64476 Z M3156.19821,923.150079 C3156.19821,925.357537 3155.407,927.265763 3153.82454,928.874813 C3152.24209,930.483864 3149.94823,931.514439 3146.94289,931.966568 L3146.94289,934.001143 C3146.94289,935.323101 3145.87123,936.39476 3144.54928,936.39476 C3143.22732,936.39476 3142.15566,935.323101 3142.15566,934.001143 L3142.15566,932.126143 C3140.16097,931.993164 3138.27269,931.654071 3136.49077,931.108856 C3135.38199,930.769604 3134.39164,930.381443 3133.51971,929.94437 C3132.68,929.523447 3132.31972,928.516622 3132.70176,927.658518 C3132.71457,927.629754 3132.72677,927.602338 3132.73838,927.57627 L3134.03561,924.662491 C3134.34193,923.974447 3135.14802,923.665 3135.83606,923.971321 C3135.86688,923.985039 3135.89717,923.999895 3135.92688,924.015859 C3135.99602,924.053017 3136.06072,924.08683 3136.12097,924.117305 C3137.00258,924.563216 3137.96361,924.945593 3139.00406,925.264441 C3140.65301,925.769762 3142.27533,926.02242 3143.87108,926.02242 C3146.90301,926.02242 3148.41896,925.264448 3148.41896,923.748483 C3148.41896,922.950607 3147.98678,922.358858 3147.12241,921.973217 C3146.25805,921.587577 3144.86843,921.181996 3142.95353,920.756462 C3140.85246,920.304332 3139.09716,919.818965 3137.68757,919.300345 C3136.27799,918.781725 3135.0679,917.950617 3134.05726,916.806994 C3133.04661,915.663371 3132.5413,914.120833 3132.5413,912.179334 C3132.5413,909.892089 3133.36576,907.930672 3135.0147,906.295026 C3136.66365,904.659379 3139.04394,903.6554 3142.15566,903.283058 L3142.15566,901.288377 C3142.15566,899.966419 3143.22732,898.89476 3144.54928,898.89476 C3145.87123,898.89476 3146.94289,899.966419 3146.94289,901.288377 L3146.94289,903.203271 C3148.45886,903.33625 3149.91496,903.602205 3151.31124,904.001143 C3152.29532,904.282306 3153.20342,904.622914 3154.03556,905.02297 C3154.10506,905.05638 3154.18375,905.095718 3154.27165,905.140986 C3154.71037,905.366935 3154.90244,905.89161 3154.7133,906.347409 L3152.90249,910.711162 C3152.75263,911.072311 3152.33837,911.243591 3151.97722,911.093727 C3151.96129,911.087115 3151.9456,911.079923 3151.93019,911.072166 C3151.79752,911.005355 3151.68446,910.949783 3151.59102,910.90544 C3149.28947,909.813209 3147.04862,909.2671 3144.86843,909.2671 C3143.29927,909.2671 3142.15566,909.499811 3141.43757,909.965239 C3140.71949,910.430667 3140.36045,911.035714 3140.36045,911.780398 C3140.36045,912.525083 3140.78597,913.083588 3141.63704,913.45593 C3142.48811,913.828272 3143.85778,914.213907 3145.74608,914.612845 C3147.87376,915.064975 3149.63571,915.550342 3151.03199,916.068962 C3152.42827,916.587582 3153.63837,917.412042 3154.66231,918.542366 C3155.68625,919.672691 3156.19821,921.20858 3156.19821,923.150079 Z" />
                      </g>
                    </g>
                  </svg>