                  <svg viewBox="0 -10 66 82.5">
                    <path d="M9.86,34.96c0.6,0.09,1.19,0.15,1.79,0.23c1.12,0.15,2.23,0.3,3.35,0.43c0.7,0.08,1.41,0.13,2.11,0.19  c1.01,0.09,2.02,0.19,3.03,0.26c0.75,0.05,1.49,0.08,2.23,0.12c0.79,0.04,1.58,0.08,2.37,0.11v-3.5c0-0.91,0.72-1.65,1.6-1.65h5.02  c0.88,0,1.6,0.74,1.6,1.65v3.51c0.14,0,0.27-0.01,0.41-0.01c1.42-0.05,2.86-0.12,4.32-0.22c0.13-0.01,0.27-0.02,0.41-0.03  c1.45-0.11,2.91-0.24,4.38-0.4c0.09-0.01,0.18-0.02,0.27-0.03c0.11-0.09,0.22-0.18,0.33-0.27c0.07-0.06,0.14-0.11,0.21-0.17  c0.25-0.21,0.51-0.4,0.78-0.58c0.09-0.06,0.18-0.12,0.27-0.18c0.26-0.17,0.52-0.33,0.78-0.48c0.11-0.06,0.22-0.12,0.33-0.18  c0.25-0.13,0.51-0.25,0.76-0.37c0.14-0.06,0.27-0.12,0.41-0.18c0.24-0.1,0.49-0.19,0.73-0.27c0.16-0.06,0.32-0.11,0.49-0.16  c0.23-0.07,0.46-0.12,0.7-0.18c0.18-0.04,0.36-0.09,0.55-0.13c0.23-0.04,0.46-0.07,0.69-0.11c0.19-0.03,0.39-0.06,0.58-0.08  c0.27-0.03,0.54-0.03,0.82-0.04c0.15-0.01,0.3-0.02,0.46-0.02c0.5,0,1,0.03,1.48,0.09c0.1,0.01,0.2,0.03,0.29,0.04  c0.39,0.05,0.77,0.12,1.14,0.2c0.04,0.01,0.09,0.01,0.13,0.02c0.06-0.21,0.09-0.42,0.09-0.64v-10.5c0-2.49-2.03-4.52-4.52-4.52  H39.48c0,0-0.01,0-0.01,0v-4.69c0-1.76-1.34-3.18-2.98-3.18H21.24c-1.64,0-2.98,1.43-2.98,3.18v4.69c0,0-0.01,0-0.01,0H7.46  c-2.49,0-4.52,2.03-4.52,4.52v10.5c0,0.75,0.38,1.45,1.01,1.86c0,0,0,0,0,0c0.01,0.01,0.01,0.01,0.02,0.01  c0.01,0,0.01,0.01,0.02,0.01c0.04,0.02,0.07,0.03,0.1,0.06c0.02,0.01,0.04,0.02,0.07,0.04c0,0,0,0,0.01,0  C4.34,34,4.53,34.06,4.73,34.1C6.44,34.42,8.15,34.71,9.86,34.96z M21.24,10.98h15.24c0.57,0,1.04,0.56,1.04,1.24v4.68H20.2v-4.68  C20.2,11.54,20.66,10.98,21.24,10.98z M10.48,20.4h36.76c0.54,0,0.97,0.43,0.97,0.97s-0.43,0.97-0.97,0.97H17.85v2.67  c0,0.54-0.43,0.97-0.97,0.97s-0.97-0.43-0.97-0.97v-2.67h-5.44c-0.54,0-0.97-0.43-0.97-0.97S9.94,20.4,10.48,20.4z" />
                    <path d="M39.69,51.45c-0.02-0.03-0.03-0.07-0.05-0.1c-0.18-0.38-0.35-0.77-0.5-1.17c-0.05-0.14-0.11-0.28-0.15-0.42  c-0.06-0.17-0.11-0.34-0.16-0.52c-0.08-0.26-0.15-0.53-0.21-0.8c-0.02-0.08-0.04-0.16-0.06-0.24c-0.08-0.39-0.14-0.78-0.18-1.18  c-0.01-0.07-0.01-0.13-0.02-0.2c-0.04-0.42-0.07-0.84-0.07-1.27c0-0.43,0.03-0.85,0.07-1.27c0.01-0.09,0.02-0.17,0.03-0.26  c0.04-0.31,0.08-0.62,0.14-0.93c0.02-0.13,0.05-0.26,0.08-0.4c0.06-0.27,0.13-0.53,0.2-0.79c0.04-0.13,0.07-0.27,0.11-0.4  c0.11-0.36,0.24-0.71,0.39-1.05c0.06-0.13,0.12-0.26,0.18-0.39c0.11-0.23,0.21-0.46,0.33-0.69c0.07-0.13,0.14-0.26,0.21-0.39  c0.13-0.24,0.28-0.47,0.42-0.7c0.06-0.1,0.12-0.19,0.19-0.29c0.05-0.08,0.1-0.16,0.16-0.24c-0.06,0.01-0.11,0.01-0.17,0.01  c-1.17,0.11-2.33,0.2-3.49,0.27c-0.3,0.02-0.59,0.03-0.89,0.05c-0.9,0.05-1.8,0.1-2.69,0.13c-0.2,0.01-0.4,0.02-0.6,0.03v3.64  c0,0.91-0.72,1.65-1.6,1.65h-5.02c-0.89,0-1.61-0.74-1.61-1.65v-3.64c-0.13,0-0.26-0.02-0.39-0.02c-1.48-0.05-2.96-0.13-4.45-0.23  c-0.2-0.01-0.39-0.03-0.59-0.05c-1.52-0.11-3.05-0.25-4.57-0.42c-0.15-0.02-0.3-0.04-0.45-0.05c-1.58-0.18-3.15-0.38-4.73-0.61  c-0.08-0.01-0.16-0.03-0.23-0.04c-1.64-0.25-3.28-0.52-4.91-0.83c0,0-0.01,0-0.01,0v17.5c0,1.9,1.54,3.44,3.44,3.44h36.91  c0,0-0.01-0.01-0.01-0.01C42.57,55.63,40.81,53.73,39.69,51.45z" />
                    <path d="M54.05,34.42c-0.13-0.03-0.25-0.05-0.38-0.07c-0.21-0.04-0.42-0.07-0.64-0.1c-0.13-0.02-0.26-0.03-0.4-0.04  c-0.27-0.02-0.55-0.04-0.83-0.04c-0.06,0-0.11-0.01-0.17-0.01c-0.22,0-0.43,0.02-0.65,0.03c-0.15,0.01-0.3,0.01-0.45,0.02  c-0.2,0.02-0.39,0.05-0.59,0.08c-0.17,0.03-0.35,0.05-0.52,0.08c-0.17,0.03-0.34,0.08-0.51,0.12c-0.19,0.05-0.38,0.09-0.57,0.15  c-0.15,0.04-0.29,0.1-0.43,0.15c-0.21,0.07-0.42,0.14-0.62,0.23c-0.12,0.05-0.23,0.1-0.35,0.16c-0.22,0.1-0.45,0.2-0.66,0.32  c-0.09,0.05-0.18,0.1-0.27,0.16c-0.23,0.13-0.46,0.27-0.68,0.41c-0.07,0.05-0.14,0.1-0.21,0.15c-0.23,0.16-0.46,0.33-0.68,0.51  c-0.06,0.05-0.11,0.09-0.16,0.14c-0.22,0.19-0.44,0.38-0.65,0.59c-0.06,0.06-0.12,0.13-0.19,0.19c-0.2,0.21-0.4,0.42-0.59,0.65  c-0.03,0.03-0.05,0.07-0.08,0.1c-1.59,1.96-2.55,4.45-2.55,7.17c0,0.39,0.02,0.77,0.06,1.15c0.01,0.05,0.02,0.1,0.02,0.15  c0.04,0.31,0.08,0.61,0.14,0.91c0.04,0.21,0.1,0.42,0.15,0.63c0.03,0.13,0.06,0.26,0.1,0.38c0.09,0.29,0.19,0.57,0.29,0.85  c0.02,0.04,0.03,0.08,0.05,0.12c1.04,2.59,3.01,4.73,5.49,5.98c0.01,0.01,0.03,0.01,0.04,0.02c0.3,0.15,0.6,0.28,0.91,0.41  c0.02,0.01,0.05,0.02,0.08,0.03c0.31,0.12,0.62,0.22,0.94,0.32c0.02,0.01,0.04,0.01,0.06,0.01c0.67,0.19,1.37,0.32,2.08,0.38  c0.01,0,0.01,0.01,0.02,0.01c0.32,0.03,0.65,0.05,0.97,0.05c6.3,0,11.42-5.11,11.42-11.4C63.06,40.1,59.19,35.53,54.05,34.42z   M45.84,46.53h-2.28c-0.54,0-0.97-0.43-0.97-0.97c0-0.54,0.43-0.97,0.97-0.97h2.28c0.54,0,0.97,0.43,0.97,0.97  C46.81,46.09,46.38,46.53,45.84,46.53z M51.66,44.8c2.2,0,3.99,1.66,3.99,3.7c0,1.73-1.29,3.17-3.02,3.58v0.53  c0,0.54-0.43,0.97-0.97,0.97c-0.54,0-0.97-0.43-0.97-0.97v-0.53c-1.73-0.4-3.02-1.85-3.02-3.58c0-0.54,0.43-0.97,0.97-0.97  c0.54,0,0.97,0.43,0.97,0.97c0,0.97,0.92,1.76,2.05,1.76c1.13,0,2.05-0.79,2.05-1.76c0-0.97-0.92-1.76-2.05-1.76  c-2.2,0-3.99-1.66-3.99-3.7c0-1.73,1.29-3.17,3.02-3.58v-0.6c0-0.54,0.43-0.97,0.97-0.97c0.54,0,0.97,0.43,0.97,0.97v0.6  c1.73,0.4,3.02,1.85,3.02,3.58c0,0.54-0.43,0.97-0.97,0.97c-0.54,0-0.97-0.43-0.97-0.97c0-0.97-0.92-1.76-2.05-1.76  c-1.13,0-2.05,0.79-2.05,1.76C49.61,44.01,50.53,44.8,51.66,44.8z M59.73,46.53h-2.28c-0.54,0-0.97-0.43-0.97-0.97  c0-0.54,0.43-0.97,0.97-0.97h2.28c0.54,0,0.97,0.43,0.97,0.97C60.7,46.09,60.27,46.53,59.73,46.53z" />
                    <path d="M26.68,33.08v4.23v4.3h4.35v-4.25c0-0.02-0.01-0.03-0.01-0.05v-4.23H26.68z" />
                  </svg>