                  <svg viewBox="0 -10 98 122.5">
                    <path d="M24.676,48.53c9.483,0,17.17-7.687,17.17-17.17c0-9.483-7.687-17.17-17.17-17.17c-9.483,0-17.17,7.687-17.17,17.17  C7.507,40.842,15.194,48.53,24.676,48.53z M24.676,18.966c6.845,0,12.394,5.549,12.394,12.394c0,6.845-5.549,12.394-12.394,12.394  S12.282,38.205,12.282,31.36C12.282,24.515,17.831,18.966,24.676,18.966z M23.434,32.439v4.196  c-0.118-0.081-0.227-0.172-0.328-0.273c-0.406-0.408-0.646-0.976-0.643-1.546c0.003-0.683-0.549-1.239-1.232-1.242  c-0.683-0.003-1.239,0.549-1.242,1.232c-0.004,1.257,0.468,2.406,1.361,3.302c0.568,0.57,1.284,0.999,2.084,1.221v0.774  c0,0.686,0.556,1.242,1.242,1.242c0.686,0,1.242-0.556,1.242-1.242v-0.766c0.796-0.218,1.509-0.641,2.076-1.208  c1.831-1.831,1.826-4.805-0.003-6.637c-0.569-0.569-1.28-0.994-2.073-1.211v-4.196c0.118,0.081,0.227,0.172,0.328,0.273  c0.394,0.395,0.638,0.933,0.638,1.513c0,0.058,0.004,0.115,0.012,0.171c0.066,0.619,0.588,1.102,1.225,1.105  c0.635,0.002,1.159-0.474,1.233-1.089c0.009-0.061,0.014-0.123,0.014-0.187c0-1.255-0.523-2.413-1.366-3.259  c-0.568-0.57-1.284-0.999-2.084-1.221v-0.774c0-0.686-0.556-1.242-1.242-1.242c-0.686,0-1.242,0.556-1.242,1.242v0.766  c-0.797,0.218-1.509,0.641-2.076,1.208c-1.831,1.831-1.826,4.805,0.003,6.637C21.93,31.798,22.641,32.222,23.434,32.439z   M25.918,32.975c0.114,0.077,0.22,0.165,0.316,0.262c0.867,0.868,0.873,2.265,0.003,3.134c-0.098,0.098-0.205,0.187-0.32,0.265  V32.975z M23.114,26.347c0.098-0.098,0.205-0.187,0.32-0.265v3.661c-0.114-0.077-0.22-0.165-0.316-0.262  C22.251,28.613,22.245,27.217,23.114,26.347z M92.637,43.37L79.726,71.443c-0.27,0.586-0.821,0.94-1.467,0.94H19.741  c-0.645,0-1.197-0.354-1.467-0.94L5.363,43.37c-0.495-1.075-0.314-2.272,0.476-3.153c0.276-0.308,0.598-0.546,0.948-0.709  c3.096,6.788,9.942,11.506,17.89,11.506c5.616,0,10.681-2.356,14.263-6.132l-0.001,13.367h-1.72c-2.314,0-4.204,1.889-4.204,4.204  c0,2.314,1.889,4.204,4.204,4.204c2.314,0,4.204-1.889,4.204-4.204c0-3.952,0-7.904,0-11.855l16.322-3.547v11.199h-1.72  c-2.314,0-4.204,1.889-4.204,4.204c0,2.314,1.889,4.204,4.204,4.204c2.315,0,4.204-1.889,4.204-4.204c0-7.424,0-14.849,0-22.273  c0-0.821-0.78-1.408-1.562-1.2L40.578,42.91c2.359-3.242,3.752-7.233,3.752-11.55c0-2.459-0.453-4.813-1.278-6.983l3.433-5.934  c0.534-0.923,1.449-1.451,2.515-1.451s1.981,0.528,2.515,1.451l16.233,28.06l21.33-7.105c1.123-0.374,2.293-0.064,3.082,0.818  C92.951,41.098,93.132,42.294,92.637,43.37z M78.259,74.867c0.356,0,0.703-0.045,1.034-0.13v7.401c0,0.919-0.752,1.672-1.672,1.672  H20.378c-0.919,0-1.671-0.752-1.671-1.672v-7.401c0.332,0.085,0.679,0.13,1.034,0.13H78.259z M68.884,43.507l-7.811-13.501h4.38  c6.562,0,12.222,4.054,14.601,9.78L68.884,43.507z" />
                  </svg>