<svg viewBox="-5.0 -20.0 110.0 135.0">
 <path d="m25.516 94.742-6.8242 3.9414-13.062-22.625 6.8242-3.9414c0.98047-0.55859 2.2227-0.22656 2.793 0.75l11.02 19.086v-0.003906c0.5625 0.98047 0.22656 2.2305-0.75 2.793zm62.18-23.324c-0.003906-1.3477-0.75391-2.582-1.9453-3.2109-1.9922-1.0352-4.3945-0.86719-6.2227 0.4375-0.023438 0.015625-0.046875 0.027344-0.070313 0.039063l-18.082 9.8516c-3.3828 2.5273-10.223 2.043-20.891-1.4727l0.003906-0.003906c-0.71875-0.26562-1.0938-1.0547-0.85547-1.7812 0.23828-0.72656 1.0078-1.1367 1.7422-0.92969 3.9492 1.4102 8.043 2.3711 12.203 2.8633 2.0703-1.0859 3.2344-2.25 3.2812-3.293 0.046875-1.1445-1.207-2.6016-3.4453-3.9883-6.5156-4.043-18.902-6.2617-22.895-4.1094-0.36328 0.22266-4.4766 2.6953-11.898 7.1797l8.8945 15.406 1.082-0.69141 0.003906-0.003906c0.61328-0.53516 1.4805-0.67578 2.2344-0.35938 0.11719 0.042969 0.25 0.085938 0.44531 0.14063l17.492 4.8086c0.03125 0.007813 0.0625 0.019531 0.09375 0.027344v-0.003906c2.7109 1.1055 5.7891 0.82812 8.2617-0.74219l0.023438-0.015625 26.992-16.277c0.046875-0.027343 0.09375-0.050781 0.14453-0.074218 2.1211-0.97266 3.332-2.3242 3.4102-3.8047zm-72.805 7.6992-1.7344-3c-0.18359-0.33594-0.5-0.58203-0.86719-0.6875-0.37109-0.10156-0.76562-0.050782-1.0977 0.14062-0.33203 0.19141-0.57422 0.50781-0.67188 0.88281-0.09375 0.37109-0.035156 0.76562 0.16406 1.0938l1.7344 3c0.40234 0.66406 1.2617 0.88281 1.9336 0.49609 0.67188-0.39062 0.91016-1.2422 0.53906-1.9258zm26.547-27.168c0 0.32422-0.12891 0.63281-0.35547 0.85938-0.23047 0.22656-0.53906 0.35547-0.85938 0.35547h-14.223c-0.66797 0-1.2109-0.54297-1.2148-1.2148v-2.4766c0.003906-0.67188 0.54688-1.2148 1.2148-1.2148h14.223c0.66797 0 1.2109 0.54297 1.2148 1.2148v2.4805zm-16.645-10.238c0-0.66797 0.54297-1.2109 1.2109-1.2148h14.219c0.66797 0.003906 1.2109 0.54688 1.2148 1.2148v2.4805c-0.007812 0.66406-0.53906 1.1992-1.2031 1.2109h-14.234c-0.66406-0.007813-1.1992-0.54688-1.2031-1.2109v-2.4766zm25.082 3.6914c-0.66797-0.007813-1.2031-0.54688-1.207-1.2109v-2.4805c0-0.32031 0.12891-0.63281 0.35938-0.85938 0.22656-0.22656 0.53906-0.35547 0.86328-0.35547h14.223-0.003906c0.67188 0.003906 1.2148 0.54688 1.2148 1.2148v2.4805c-0.003907 0.66797-0.54688 1.207-1.2148 1.2109zm15.445 6.5469h-0.003906c0 0.67188-0.54297 1.2148-1.2109 1.2148h-14.215c-0.32422 0.003907-0.63672-0.125-0.86328-0.35156-0.23047-0.22656-0.35938-0.53906-0.35938-0.86328v-2.4766c0-0.32422 0.12891-0.63281 0.35938-0.85938 0.22656-0.23047 0.53906-0.35547 0.86328-0.35547h14.223-0.003906c0.67188 0 1.2148 0.54297 1.2148 1.2148v2.4805zm-16.652-18c0-0.32031 0.12891-0.63281 0.35938-0.85938 0.22656-0.22656 0.53906-0.35547 0.86328-0.35156h14.223-0.003906c0.67188 0 1.2148 0.54297 1.2148 1.2109v2.4805c-0.003907 0.66797-0.54688 1.207-1.2148 1.2148h-14.234c-0.66797-0.007812-1.2031-0.55078-1.207-1.2148zm32.012 3.1094v0.003906c0.37891 0 0.74609 0.14844 1.0156 0.41797 0.26563 0.26953 0.41797 0.63672 0.41406 1.0156v0.59375c1.4844 0.47656 2.6602 1.6211 3.1719 3.0898 0.25 0.73047-0.125 1.5273-0.84375 1.8008-0.72266 0.26953-1.5273-0.078125-1.8242-0.78906-0.15234-0.54688-0.53125-1-1.043-1.2461-0.50781-0.25-1.1016-0.26172-1.625-0.042968-0.41797 0.11719-0.73047 0.46875-0.79297 0.90234-0.007813 0.42578 0.48828 0.69922 0.80078 0.82812h-0.003906c0.38281 0.11719 0.77344 0.20313 1.1719 0.25 1.3242 0.070313 2.5664 0.67969 3.4336 1.6836 0.85937 0.98438 1.1016 2.3594 0.63281 3.5781-0.54297 1.2852-1.7031 2.2031-3.0781 2.4375v0.51172c0 0.78516-0.63672 1.4258-1.4258 1.4258-0.78906 0-1.4297-0.64062-1.4297-1.4258v-0.59375c-1.6953-0.40625-3.0156-1.7383-3.418-3.4375-0.125-0.74219 0.35156-1.457 1.0898-1.6289 0.73438-0.16797 1.4766 0.26562 1.6914 0.99219 0.30859 1.3398 1.8594 1.5078 2.7266 1.3945 0.49219-0.011718 0.94141-0.28516 1.1797-0.71875 0.085937-0.24609 0.019531-0.52344-0.16797-0.71094-0.40234-0.48047-0.77734-0.55469-1.668-0.6875-0.59766-0.070313-1.1836-0.20312-1.75-0.39844l-0.042969-0.019532h-0.003906c-1.5273-0.5-2.5742-1.9141-2.6016-3.5234 0.0625-1.6172 1.1211-3.0234 2.6562-3.5352 0.10156-0.039062 0.19922-0.070312 0.30469-0.10156v-0.62891h-0.003906c0.003906-0.78906 0.64062-1.4258 1.4297-1.4297zm3.7461-4.1797h0.17188v0.003906c0.078125-0.003906 0.15625-0.011718 0.23438-0.027343 4.793-0.91797 7.9883-4.8906 9.5-11.797 0.10547-0.47266-0.039062-0.96875-0.38281-1.3125-0.33984-0.34375-0.83594-0.48828-1.3086-0.38672-4.0117 0.72266-7.7109 2.6523-10.598 5.5312v-7.6289c3.5352-3.6797 5.168-8.582 4.8555-14.59-0.027344-0.48438-0.29688-0.92188-0.71484-1.1641-0.42188-0.24219-0.9375-0.25391-1.3672-0.03125-6.2812 3.2461-9.2891 7.3594-8.9336 12.23 0.003907 0.078125 0.015626 0.15625 0.035157 0.23438 0.32031 1.7773 1.5664 3.2461 3.2695 3.8516v2.1992c-2.8828-2.8242-6.5469-4.7188-10.52-5.4375-0.47656-0.10156-0.96875 0.046874-1.3125 0.39062s-0.48828 0.83594-0.38281 1.3125c1.5078 6.9062 4.707 10.879 9.5 11.797 0.078125 0.011718 0.15625 0.023437 0.23828 0.023437h0.17187c0.78516 0.007813 1.5703-0.13672 2.3008-0.42969v6.2227c-6.0352 0.75391-10.441 6.0703-10.062 12.141 0.375 6.0703 5.4102 10.797 11.488 10.797 6.082 0 11.113-4.7266 11.492-10.797 0.37891-6.0703-4.0312-11.387-10.062-12.141v-1.4453 0.003907c0.75391 0.3125 1.5703 0.47266 2.3906 0.46094z" fill-rule="evenodd"/>
</svg>