<svg viewBox="-5.0 -20.0 110.0 135.0">
  <path d="m68.055 33.332h8.332l0.003906-22.223c0-3.832-3.1094-6.9453-6.9453-6.9453l-44.918 0.003907c-1.8594 0-3.5977 0.72266-4.918 2.0273l-13.414 13.414c-1.3047 1.3203-2.0273 3.0547-2.0273 4.918v64.359c0 3.832 3.1094 6.9453 6.9453 6.9453h58.332c2.2656 0 4.293-1.0977 5.5547-2.7773h-2.7773c-11.484 0-20.832-9.3477-20.832-20.832 0-8.3047 5.0273-15.805 12.516-19.082-0.015625-0.125-0.015625-0.23438-0.015625-0.35938 0-0.48438 0.054687-0.95703 0.15234-1.4297-1.8477-1.8047-2.9297-4.293-2.9297-6.9023v-4.168c0-3.832 3.1094-6.9453 6.9453-6.9453zm-4.1641-22.223c3.0703 0 5.5547 2.4844 5.5547 5.5547 0 3.0703-2.4844 5.5547-5.5547 5.5547s-5.5547-2.4844-5.5547-5.5547c0-3.0703 2.4844-5.5547 5.5547-5.5547zm-34.723 11.113h22.223c0.76562 0 1.3906 0.625 1.3906 1.3906s-0.625 1.3906-1.3906 1.3906h-22.223c-0.76562 0-1.3906-0.625-1.3906-1.3906s0.625-1.3906 1.3906-1.3906zm-22.113 1.3867c0.16797-0.76562 0.55469-1.4727 1.1094-2.0273l0.75-0.75h7.75c2.293 0 4.168-1.875 4.168-4.168v-7.75l0.75-0.75c0.55469-0.57031 1.2656-0.95703 2.0273-1.1094v9.6094c0 3.832-3.1094 6.9453-6.9453 6.9453zm40.168 63.891h-2.7773c-3.832 0-6.9453-3.1094-6.9453-6.9453v-2.7773c0-1.5273-1.25-2.7773-2.7773-2.7773s-2.7773 1.25-2.7773 2.7773v4.168c0 3.0703-2.4844 5.5547-5.5547 5.5547s-5.5547-2.4844-5.5547-5.5547v-4.168c0-1.5273-1.25-2.7773-2.7773-2.7773s-2.7773 1.25-2.7773 2.7773v8.332c0 0.76562-0.625 1.3906-1.3906 1.3906s-1.3906-0.625-1.3906-1.3906v-8.332c0-3.0703 2.4844-5.5547 5.5547-5.5547 3.0703 0 5.5547 2.4844 5.5547 5.5547v4.168c0 1.5273 1.25 2.7773 2.7773 2.7773 1.5273 0 2.7773-1.25 2.7773-2.7773v-4.168c0-3.0703 2.4844-5.5547 5.5547-5.5547s5.5547 2.4844 5.5547 5.5547v2.7773c0 2.293 1.875 4.168 4.168 4.168h2.7773c0.76562 0 1.3906 0.625 1.3906 1.3906s-0.625 1.3906-1.3906 1.3906zm-30.555-27.777c0-0.76562 0.625-1.3906 1.3906-1.3906h15.277c0.76562 0 1.3906 0.625 1.3906 1.3906s-0.625 1.3906-1.3906 1.3906h-15.277c-0.76562 0-1.3906-0.625-1.3906-1.3906zm41.664-6.9453h-40.277c-0.76563 0-1.3906-0.625-1.3906-1.3906s0.625-1.3906 1.3906-1.3906h40.277c0.76562 0 1.3906 0.625 1.3906 1.3906s-0.625 1.3906-1.3906 1.3906zm0-8.332h-40.277c-0.76563 0-1.3906-0.625-1.3906-1.3906 0-0.76563 0.625-1.3906 1.3906-1.3906h40.277c0.76562 0 1.3906 0.625 1.3906 1.3906 0 0.76562-0.625 1.3906-1.3906 1.3906zm1.3906-8.3359h-33.332c-0.76562 0-1.3906-0.625-1.3906-1.3906s0.625-1.3906 1.3906-1.3906h33.332c0.76562 0 1.3906 0.625 1.3906 1.3906s-0.625 1.3906-1.3906 1.3906z"/>
  <path d="m66.668 16.668c0 3.7031-5.5586 3.7031-5.5586 0s5.5586-3.7031 5.5586 0"/>
  <path d="m82.746 54.879c0.36328-0.61719 0.58984-1.332 0.58984-2.1016 0-0.86719-0.26563-1.6719-0.72266-2.3398 2.082-1.1992 3.5-3.4219 3.5-5.9922v-4.168c0-2.2969-1.8672-4.168-4.168-4.168h-13.891c-2.2969 0-4.168 1.8672-4.168 4.168v4.168c0 2.5703 1.418 4.793 3.5 5.9922-0.45312 0.66797-0.72266 1.4727-0.72266 2.3398 0 0.76953 0.22266 1.4805 0.58984 2.1016-7.5469 2.1641-13.09 9.1133-13.09 17.344 0 9.957 8.1016 18.055 18.055 18.055h5.5547c9.957 0 18.055-8.0977 18.055-18.055 0-8.2305-5.543-15.18-13.09-17.344zm-16.078-14.602c0-0.76562 0.62109-1.3906 1.3906-1.3906h13.891c0.76562 0 1.3906 0.625 1.3906 1.3906v4.168c0 2.2969-1.8672 4.168-4.168 4.168h-8.332c-2.2969 0-4.168-1.8672-4.168-4.168v-4.168zm4.1641 13.891c-0.76562 0-1.3906-0.625-1.3906-1.3906s0.62109-1.3906 1.3906-1.3906h8.332c0.76563 0 1.3906 0.625 1.3906 1.3906s-0.62109 1.3906-1.3906 1.3906zm6.9453 33.332h-5.5547c-8.4258 0-15.277-6.8555-15.277-15.277 0-8.4258 6.8555-15.277 15.277-15.277h5.5547c8.4258 0 15.277 6.8555 15.277 15.277 0 8.4258-6.8555 15.277-15.277 15.277z"/>
  <path d="m72.223 65.277h5.5547c1.5312 0 2.7773 1.2461 2.7773 2.7773 0 0.76562 0.62109 1.3906 1.3906 1.3906 0.76953 0 1.3906-0.62109 1.3906-1.3906 0-2.582-1.7773-4.7383-4.168-5.3594v-1.5859c0-0.76562-0.62109-1.3906-1.3906-1.3906-0.76953 0-1.3906 0.62109-1.3906 1.3906v1.3906h-2.7773v-1.3906c0-0.76562-0.62109-1.3906-1.3906-1.3906s-1.3906 0.62109-1.3906 1.3906v1.5859c-2.3906 0.62109-4.168 2.7773-4.168 5.3594 0 3.0625 2.4922 5.5547 5.5547 5.5547h5.5547c1.5312 0 2.7773 1.2461 2.7773 2.7773s-1.2461 2.7773-2.7773 2.7773h-5.5547c-1.5312 0-2.7773-1.2461-2.7773-2.7773 0-0.76562-0.62109-1.3906-1.3906-1.3906s-1.3906 0.62109-1.3906 1.3906c0 2.582 1.7773 4.7383 4.168 5.3594v1.5859c0 0.76562 0.62109 1.3906 1.3906 1.3906 0.76953 0 1.3906-0.62109 1.3906-1.3906v-1.3906h2.7773v1.3906c0 0.76562 0.62109 1.3906 1.3906 1.3906 0.76953 0 1.3906-0.62109 1.3906-1.3906v-1.5859c2.3906-0.62109 4.168-2.7773 4.168-5.3594 0-3.0625-2.4922-5.5547-5.5547-5.5547h-5.5547c-1.5312 0-2.7773-1.2461-2.7773-2.7773s1.2461-2.7773 2.7773-2.7773z"/>
</svg>