<svg width="33" height="32" viewBox="0 0 33 32" fill="none" xmlns="http://www.w3.org/2000/svg">
<path d="M23.0612 14H9.06116C7.73507 14 6.46331 14.5268 5.52562 15.4645C4.58794 16.4021 4.06116 17.6739 4.06116 19V25C4.06116 26.3261 4.58794 27.5979 5.52562 28.5355C6.46331 29.4732 7.73507 30 9.06116 30H23.0612C24.3872 30 25.659 29.4732 26.5967 28.5355C27.5344 27.5979 28.0612 26.3261 28.0612 25V19C28.0612 17.6739 27.5344 16.4021 26.5967 15.4645C25.659 14.5268 24.3872 14 23.0612 14ZM16.0612 26C15.27 26 14.4967 25.7654 13.8389 25.3259C13.1811 24.8864 12.6684 24.2616 12.3656 23.5307C12.0629 22.7998 11.9837 21.9956 12.138 21.2196C12.2924 20.4437 12.6733 19.731 13.2327 19.1716C13.7921 18.6122 14.5049 18.2312 15.2808 18.0769C16.0567 17.9225 16.861 18.0017 17.5919 18.3045C18.3228 18.6072 18.9475 19.1199 19.387 19.7777C19.8266 20.4355 20.0612 21.2089 20.0612 22C20.0612 23.0609 19.6397 24.0783 18.8896 24.8284C18.1394 25.5786 17.122 26 16.0612 26Z" fill="#FD3C4A"/>
<path d="M16.0612 24C17.1657 24 18.0612 23.1046 18.0612 22C18.0612 20.8954 17.1657 20 16.0612 20C14.9566 20 14.0612 20.8954 14.0612 22C14.0612 23.1046 14.9566 24 16.0612 24Z" fill="#FD3C4A"/>
<path d="M16.7711 2.28994C16.6782 2.19621 16.5676 2.12182 16.4457 2.07105C16.3238 2.02028 16.1931 1.99414 16.0611 1.99414C15.9291 1.99414 15.7984 2.02028 15.6765 2.07105C15.5547 2.12182 15.4441 2.19621 15.3511 2.28994L11.1111 6.53994C10.9175 6.72692 10.8061 6.98315 10.8014 7.25226C10.7967 7.52138 10.8991 7.78133 11.0861 7.97494C11.2731 8.16855 11.5293 8.27995 11.7984 8.28464C12.0676 8.28933 12.3275 8.18692 12.5211 7.99994L15.0611 5.40994V10.9999C15.0611 11.2652 15.1665 11.5195 15.354 11.707C15.5416 11.8946 15.7959 11.9999 16.0611 11.9999C16.3263 11.9999 16.5807 11.8946 16.7682 11.707C16.9558 11.5195 17.0611 11.2652 17.0611 10.9999V5.40994L19.6011 7.99994C19.7874 8.18468 20.0388 8.28883 20.3011 8.28994C20.441 8.29755 20.581 8.27567 20.7119 8.22571C20.8429 8.17575 20.9618 8.09883 21.0611 7.99994C21.2474 7.81258 21.3519 7.55912 21.3519 7.29494C21.3519 7.03075 21.2474 6.7773 21.0611 6.58994L16.7711 2.28994Z" fill="#FD3C4A"/>
</svg>
